<svg width="253" height="13" viewBox="0 0 253 13" fill="none" xmlns="http://www.w3.org/2000/svg">
<path d="M88.2287 7.90909V7L80.9105 3.27273V4.72727L86.4787 7.40909V7.5L80.9105 10.1818V11.6364L88.2287 7.90909ZM112.844 12C116.389 12 118.389 9.79545 118.389 6.15909C118.389 2.54545 116.389 0.363636 113.003 0.363636H109.253V12H112.844ZM110.662 10.75V1.61364H112.912C115.639 1.61364 117.026 3.34091 117.026 6.15909C117.026 9 115.639 10.75 112.753 10.75H110.662ZM124.23 12.1818C126.003 12.1818 127.298 11.2955 127.707 9.97727L126.412 9.61364C126.071 10.5227 125.281 10.9773 124.23 10.9773C122.656 10.9773 121.571 9.96023 121.509 8.09091H127.844V7.52273C127.844 4.27273 125.912 3.15909 124.094 3.15909C121.73 3.15909 120.162 5.02273 120.162 7.70455C120.162 10.3864 121.707 12.1818 124.23 12.1818ZM121.509 6.93182C121.599 5.57386 122.56 4.36364 124.094 4.36364C125.548 4.36364 126.48 5.45455 126.48 6.93182H121.509ZM133.679 3.27273H131.815V1.18182H130.474V3.27273H129.156V4.40909H130.474V9.86364C130.474 11.3864 131.702 12.1136 132.838 12.1136C133.338 12.1136 133.656 12.0227 133.838 11.9545L133.565 10.75C133.452 10.7727 133.27 10.8182 132.974 10.8182C132.384 10.8182 131.815 10.6364 131.815 9.5V4.40909H133.679V3.27273ZM138.264 12.2045C139.787 12.2045 140.582 11.3864 140.855 10.8182H140.923V12H142.264V6.25C142.264 3.47727 140.151 3.15909 139.037 3.15909C137.719 3.15909 136.219 3.61364 135.537 5.20455L136.81 5.65909C137.105 5.02273 137.804 4.34091 139.082 4.34091C140.315 4.34091 140.923 4.99432 140.923 6.11364V6.15909C140.923 6.80682 140.264 6.75 138.673 6.95455C137.054 7.16477 135.287 7.52273 135.287 9.52273C135.287 11.2273 136.605 12.2045 138.264 12.2045ZM138.469 11C137.401 11 136.628 10.5227 136.628 9.59091C136.628 8.56818 137.56 8.25 138.605 8.11364C139.173 8.04545 140.696 7.88636 140.923 7.61364V8.84091C140.923 9.93182 140.06 11 138.469 11ZM146.053 0.363636H144.712V12H146.053V0.363636ZM149.849 6.75C149.849 5.22727 150.821 4.36364 152.145 4.36364C153.406 4.36364 154.168 5.15909 154.168 6.54545V12H155.509V6.45455C155.509 4.21023 154.315 3.15909 152.531 3.15909C151.156 3.15909 150.372 3.73295 149.963 4.63636H149.849V0.363636H148.509V12H149.849V6.75ZM161.621 12.1818C163.393 12.1818 164.689 11.2955 165.098 9.97727L163.803 9.61364C163.462 10.5227 162.672 10.9773 161.621 10.9773C160.047 10.9773 158.962 9.96023 158.899 8.09091H165.234V7.52273C165.234 4.27273 163.303 3.15909 161.484 3.15909C159.121 3.15909 157.553 5.02273 157.553 7.70455C157.553 10.3864 159.098 12.1818 161.621 12.1818ZM158.899 6.93182C158.99 5.57386 159.95 4.36364 161.484 4.36364C162.939 4.36364 163.871 5.45455 163.871 6.93182H158.899ZM173.456 5.22727C173.036 3.98864 172.092 3.15909 170.365 3.15909C168.524 3.15909 167.161 4.20455 167.161 5.68182C167.161 6.88636 167.876 7.69318 169.479 8.06818L170.933 8.40909C171.814 8.61364 172.229 9.03409 172.229 9.63636C172.229 10.3864 171.433 11 170.183 11C169.087 11 168.399 10.5284 168.161 9.59091L166.888 9.90909C167.2 11.392 168.422 12.1818 170.206 12.1818C172.234 12.1818 173.615 11.0739 173.615 9.56818C173.615 8.35227 172.854 7.58523 171.297 7.20455L170.001 6.88636C168.967 6.63068 168.501 6.28409 168.501 5.61364C168.501 4.86364 169.297 4.31818 170.365 4.31818C171.536 4.31818 172.018 4.96591 172.251 5.56818L173.456 5.22727ZM183.429 12.1818C185.111 12.1818 185.679 11.1364 185.974 10.6591H186.134V12H187.429V0.363636H186.088V4.65909H185.974C185.679 4.20455 185.156 3.15909 183.452 3.15909C181.247 3.15909 179.724 4.90909 179.724 7.65909C179.724 10.4318 181.247 12.1818 183.429 12.1818ZM183.611 10.9773C181.929 10.9773 181.065 9.5 181.065 7.63636C181.065 5.79545 181.906 4.36364 183.611 4.36364C185.247 4.36364 186.111 5.68182 186.111 7.63636C186.111 9.61364 185.224 10.9773 183.611 10.9773ZM193.616 12.1818C195.98 12.1818 197.571 10.3864 197.571 7.68182C197.571 4.95455 195.98 3.15909 193.616 3.15909C191.253 3.15909 189.662 4.95455 189.662 7.68182C189.662 10.3864 191.253 12.1818 193.616 12.1818ZM193.616 10.9773C191.821 10.9773 191.003 9.43182 191.003 7.68182C191.003 5.93182 191.821 4.36364 193.616 4.36364C195.412 4.36364 196.23 5.93182 196.23 7.68182C196.23 9.43182 195.412 10.9773 193.616 10.9773ZM207.663 12.1818C209.595 12.1818 210.868 11 211.095 9.45455H209.754C209.504 10.4091 208.709 10.9773 207.663 10.9773C206.072 10.9773 205.05 9.65909 205.05 7.63636C205.05 5.65909 206.095 4.36364 207.663 4.36364C208.845 4.36364 209.55 5.09091 209.754 5.88636H211.095C210.868 4.25 209.482 3.15909 207.641 3.15909C205.277 3.15909 203.709 5.02273 203.709 7.68182C203.709 10.2955 205.209 12.1818 207.663 12.1818ZM214.396 0.363636H213.055V12H214.396V0.363636ZM216.852 12H218.193V3.27273H216.852V12ZM217.534 1.81818C218.057 1.81818 218.489 1.40909 218.489 0.909091C218.489 0.409091 218.057 0 217.534 0C217.011 0 216.58 0.409091 216.58 0.909091C216.58 1.40909 217.011 1.81818 217.534 1.81818ZM224.308 12.1818C226.081 12.1818 227.376 11.2955 227.786 9.97727L226.49 9.61364C226.149 10.5227 225.359 10.9773 224.308 10.9773C222.734 10.9773 221.649 9.96023 221.587 8.09091H227.922V7.52273C227.922 4.27273 225.99 3.15909 224.172 3.15909C221.808 3.15909 220.24 5.02273 220.24 7.70455C220.24 10.3864 221.786 12.1818 224.308 12.1818ZM221.587 6.93182C221.678 5.57386 222.638 4.36364 224.172 4.36364C225.626 4.36364 226.558 5.45455 226.558 6.93182H221.587ZM231.303 6.75C231.303 5.22727 232.246 4.36364 233.53 4.36364C234.774 4.36364 235.53 5.17614 235.53 6.54545V12H236.871V6.45455C236.871 4.22727 235.683 3.15909 233.916 3.15909C232.598 3.15909 231.78 3.75 231.371 4.63636H231.257V3.27273H229.962V12H231.303V6.75ZM243.116 3.27273H241.253V1.18182H239.912V3.27273H238.594V4.40909H239.912V9.86364C239.912 11.3864 241.139 12.1136 242.276 12.1136C242.776 12.1136 243.094 12.0227 243.276 11.9545L243.003 10.75C242.889 10.7727 242.707 10.8182 242.412 10.8182C241.821 10.8182 241.253 10.6364 241.253 9.5V4.40909H243.116V3.27273ZM248.699 12.1818C250.472 12.1818 251.767 11.2955 252.176 9.97727L250.881 9.61364C250.54 10.5227 249.75 10.9773 248.699 10.9773C247.125 10.9773 246.04 9.96023 245.977 8.09091H252.312V7.52273C252.312 4.27273 250.381 3.15909 248.562 3.15909C246.199 3.15909 244.631 5.02273 244.631 7.70455C244.631 10.3864 246.176 12.1818 248.699 12.1818ZM245.977 6.93182C246.068 5.57386 247.028 4.36364 248.562 4.36364C250.017 4.36364 250.949 5.45455 250.949 6.93182H245.977Z" fill="#747488"/>
</svg>
