<svg width="1120" height="595" viewBox="0 0 1120 595" fill="none" xmlns="http://www.w3.org/2000/svg">
<path d="M0 30C0 13.4315 13.4315 0 30 0H1090C1106.57 0 1120 13.4315 1120 30V564.44C1120 581.008 1106.57 594.44 1090 594.44H30C13.4315 594.44 0 581.008 0 564.44V30Z" fill="white"/>
<path d="M277.29 482.4V502H274.294L263.486 488.728V502H259.874V482.4H262.87L273.678 495.672V482.4H277.29ZM296.262 494.608C296.262 494.851 296.243 495.196 296.206 495.644H284.474C284.679 496.745 285.211 497.623 286.07 498.276C286.947 498.911 288.03 499.228 289.318 499.228C290.961 499.228 292.314 498.687 293.378 497.604L295.254 499.76C294.582 500.563 293.733 501.169 292.706 501.58C291.679 501.991 290.522 502.196 289.234 502.196C287.591 502.196 286.145 501.869 284.894 501.216C283.643 500.563 282.673 499.657 281.982 498.5C281.31 497.324 280.974 495.999 280.974 494.524C280.974 493.068 281.301 491.761 281.954 490.604C282.626 489.428 283.55 488.513 284.726 487.86C285.902 487.207 287.227 486.88 288.702 486.88C290.158 486.88 291.455 487.207 292.594 487.86C293.751 488.495 294.647 489.4 295.282 490.576C295.935 491.733 296.262 493.077 296.262 494.608ZM288.702 489.68C287.582 489.68 286.63 490.016 285.846 490.688C285.081 491.341 284.614 492.219 284.446 493.32H292.93C292.781 492.237 292.323 491.36 291.558 490.688C290.793 490.016 289.841 489.68 288.702 489.68ZM308.108 486.88C309.993 486.88 311.505 487.431 312.644 488.532C313.783 489.633 314.352 491.267 314.352 493.432V502H310.852V493.88C310.852 492.573 310.544 491.593 309.928 490.94C309.312 490.268 308.435 489.932 307.296 489.932C306.008 489.932 304.991 490.324 304.244 491.108C303.497 491.873 303.124 492.984 303.124 494.44V502H299.624V487.048H302.956V488.98C303.535 488.289 304.263 487.767 305.14 487.412C306.017 487.057 307.007 486.88 308.108 486.88ZM327.276 486.88C329.161 486.88 330.673 487.431 331.812 488.532C332.951 489.633 333.52 491.267 333.52 493.432V502H330.02V493.88C330.02 492.573 329.712 491.593 329.096 490.94C328.48 490.268 327.603 489.932 326.464 489.932C325.176 489.932 324.159 490.324 323.412 491.108C322.665 491.873 322.292 492.984 322.292 494.44V502H318.792V481.224H322.292V488.784C322.871 488.168 323.58 487.701 324.42 487.384C325.279 487.048 326.231 486.88 327.276 486.88ZM352.436 487.048V502H349.104V500.096C348.544 500.768 347.844 501.291 347.004 501.664C346.164 502.019 345.259 502.196 344.288 502.196C342.291 502.196 340.713 501.645 339.556 500.544C338.417 499.424 337.848 497.772 337.848 495.588V487.048H341.348V495.112C341.348 496.456 341.647 497.464 342.244 498.136C342.86 498.789 343.728 499.116 344.848 499.116C346.099 499.116 347.088 498.733 347.816 497.968C348.563 497.184 348.936 496.064 348.936 494.608V487.048H352.436ZM375.891 486.88C377.776 486.88 379.269 487.431 380.371 488.532C381.472 489.615 382.023 491.248 382.023 493.432V502H378.523V493.88C378.523 492.573 378.233 491.593 377.655 490.94C377.076 490.268 376.245 489.932 375.163 489.932C373.987 489.932 373.044 490.324 372.335 491.108C371.625 491.873 371.271 492.975 371.271 494.412V502H367.771V493.88C367.771 492.573 367.481 491.593 366.903 490.94C366.324 490.268 365.493 489.932 364.411 489.932C363.216 489.932 362.264 490.315 361.555 491.08C360.864 491.845 360.519 492.956 360.519 494.412V502H357.019V487.048H360.351V488.952C360.911 488.28 361.611 487.767 362.451 487.412C363.291 487.057 364.224 486.88 365.251 486.88C366.371 486.88 367.36 487.095 368.219 487.524C369.096 487.935 369.787 488.551 370.291 489.372C370.907 488.588 371.7 487.981 372.671 487.552C373.641 487.104 374.715 486.88 375.891 486.88ZM397.566 489.232C398.574 487.664 400.347 486.88 402.886 486.88V490.212C402.587 490.156 402.316 490.128 402.074 490.128C400.711 490.128 399.647 490.529 398.882 491.332C398.116 492.116 397.734 493.255 397.734 494.748V502H394.234V487.048H397.566V489.232ZM419.774 494.608C419.774 494.851 419.755 495.196 419.718 495.644H407.986C408.191 496.745 408.723 497.623 409.582 498.276C410.459 498.911 411.542 499.228 412.83 499.228C414.473 499.228 415.826 498.687 416.89 497.604L418.766 499.76C418.094 500.563 417.245 501.169 416.218 501.58C415.191 501.991 414.034 502.196 412.746 502.196C411.103 502.196 409.657 501.869 408.406 501.216C407.155 500.563 406.185 499.657 405.494 498.5C404.822 497.324 404.486 495.999 404.486 494.524C404.486 493.068 404.813 491.761 405.466 490.604C406.138 489.428 407.062 488.513 408.238 487.86C409.414 487.207 410.739 486.88 412.214 486.88C413.67 486.88 414.967 487.207 416.106 487.86C417.263 488.495 418.159 489.4 418.794 490.576C419.447 491.733 419.774 493.077 419.774 494.608ZM412.214 489.68C411.094 489.68 410.142 490.016 409.358 490.688C408.593 491.341 408.126 492.219 407.958 493.32H416.442C416.293 492.237 415.835 491.36 415.07 490.688C414.305 490.016 413.353 489.68 412.214 489.68ZM427.756 502.196C426.543 502.196 425.357 502.037 424.2 501.72C423.043 501.403 422.119 501.001 421.428 500.516L422.772 497.856C423.444 498.304 424.247 498.668 425.18 498.948C426.132 499.209 427.065 499.34 427.98 499.34C430.071 499.34 431.116 498.789 431.116 497.688C431.116 497.165 430.845 496.801 430.304 496.596C429.781 496.391 428.932 496.195 427.756 496.008C426.524 495.821 425.516 495.607 424.732 495.364C423.967 495.121 423.295 494.701 422.716 494.104C422.156 493.488 421.876 492.639 421.876 491.556C421.876 490.137 422.464 489.008 423.64 488.168C424.835 487.309 426.44 486.88 428.456 486.88C429.483 486.88 430.509 487.001 431.536 487.244C432.563 487.468 433.403 487.776 434.056 488.168L432.712 490.828C431.443 490.081 430.015 489.708 428.428 489.708C427.401 489.708 426.617 489.867 426.076 490.184C425.553 490.483 425.292 490.884 425.292 491.388C425.292 491.948 425.572 492.349 426.132 492.592C426.711 492.816 427.597 493.031 428.792 493.236C429.987 493.423 430.967 493.637 431.732 493.88C432.497 494.123 433.151 494.533 433.692 495.112C434.252 495.691 434.532 496.512 434.532 497.576C434.532 498.976 433.925 500.096 432.712 500.936C431.499 501.776 429.847 502.196 427.756 502.196ZM452.022 487.048V502H448.69V500.096C448.13 500.768 447.43 501.291 446.59 501.664C445.75 502.019 444.845 502.196 443.874 502.196C441.877 502.196 440.299 501.645 439.142 500.544C438.003 499.424 437.434 497.772 437.434 495.588V487.048H440.934V495.112C440.934 496.456 441.233 497.464 441.83 498.136C442.446 498.789 443.314 499.116 444.434 499.116C445.685 499.116 446.674 498.733 447.402 497.968C448.149 497.184 448.522 496.064 448.522 494.608V487.048H452.022ZM456.605 481.224H460.105V502H456.605V481.224ZM474.425 501.188C474.014 501.524 473.51 501.776 472.913 501.944C472.334 502.112 471.718 502.196 471.065 502.196C469.422 502.196 468.153 501.767 467.257 500.908C466.361 500.049 465.913 498.799 465.913 497.156V489.96H463.449V487.16H465.913V483.744H469.413V487.16H473.417V489.96H469.413V497.072C469.413 497.8 469.59 498.36 469.945 498.752C470.299 499.125 470.813 499.312 471.485 499.312C472.269 499.312 472.922 499.107 473.445 498.696L474.425 501.188ZM483.016 486.88C485.218 486.88 486.898 487.412 488.056 488.476C489.232 489.521 489.82 491.108 489.82 493.236V502H486.516V500.18C486.086 500.833 485.47 501.337 484.668 501.692C483.884 502.028 482.932 502.196 481.812 502.196C480.692 502.196 479.712 502.009 478.872 501.636C478.032 501.244 477.378 500.712 476.912 500.04C476.464 499.349 476.24 498.575 476.24 497.716C476.24 496.372 476.734 495.299 477.724 494.496C478.732 493.675 480.309 493.264 482.456 493.264H486.32V493.04C486.32 491.995 486.002 491.192 485.368 490.632C484.752 490.072 483.828 489.792 482.596 489.792C481.756 489.792 480.925 489.923 480.104 490.184C479.301 490.445 478.62 490.809 478.06 491.276L476.688 488.728C477.472 488.131 478.414 487.673 479.516 487.356C480.617 487.039 481.784 486.88 483.016 486.88ZM482.54 499.648C483.417 499.648 484.192 499.452 484.864 499.06C485.554 498.649 486.04 498.071 486.32 497.324V495.588H482.708C480.692 495.588 479.684 496.251 479.684 497.576C479.684 498.211 479.936 498.715 480.44 499.088C480.944 499.461 481.644 499.648 482.54 499.648ZM509.092 481.224V502H505.732V500.068C505.154 500.777 504.435 501.309 503.576 501.664C502.736 502.019 501.803 502.196 500.776 502.196C499.339 502.196 498.042 501.879 496.884 501.244C495.746 500.609 494.85 499.713 494.196 498.556C493.543 497.38 493.216 496.036 493.216 494.524C493.216 493.012 493.543 491.677 494.196 490.52C494.85 489.363 495.746 488.467 496.884 487.832C498.042 487.197 499.339 486.88 500.776 486.88C501.766 486.88 502.671 487.048 503.492 487.384C504.314 487.72 505.014 488.224 505.592 488.896V481.224H509.092ZM501.196 499.2C502.036 499.2 502.792 499.013 503.464 498.64C504.136 498.248 504.668 497.697 505.06 496.988C505.452 496.279 505.648 495.457 505.648 494.524C505.648 493.591 505.452 492.769 505.06 492.06C504.668 491.351 504.136 490.809 503.464 490.436C502.792 490.044 502.036 489.848 501.196 489.848C500.356 489.848 499.6 490.044 498.928 490.436C498.256 490.809 497.724 491.351 497.332 492.06C496.94 492.769 496.744 493.591 496.744 494.524C496.744 495.457 496.94 496.279 497.332 496.988C497.724 497.697 498.256 498.248 498.928 498.64C499.6 499.013 500.356 499.2 501.196 499.2ZM520.391 502.196C518.879 502.196 517.516 501.869 516.303 501.216C515.09 500.563 514.138 499.657 513.447 498.5C512.775 497.324 512.439 495.999 512.439 494.524C512.439 493.049 512.775 491.733 513.447 490.576C514.138 489.419 515.09 488.513 516.303 487.86C517.516 487.207 518.879 486.88 520.391 486.88C521.922 486.88 523.294 487.207 524.507 487.86C525.72 488.513 526.663 489.419 527.335 490.576C528.026 491.733 528.371 493.049 528.371 494.524C528.371 495.999 528.026 497.324 527.335 498.5C526.663 499.657 525.72 500.563 524.507 501.216C523.294 501.869 521.922 502.196 520.391 502.196ZM520.391 499.2C521.679 499.2 522.743 498.771 523.583 497.912C524.423 497.053 524.843 495.924 524.843 494.524C524.843 493.124 524.423 491.995 523.583 491.136C522.743 490.277 521.679 489.848 520.391 489.848C519.103 489.848 518.039 490.277 517.199 491.136C516.378 491.995 515.967 493.124 515.967 494.524C515.967 495.924 516.378 497.053 517.199 497.912C518.039 498.771 519.103 499.2 520.391 499.2ZM545.532 483.856C544.057 483.856 543.32 484.659 543.32 486.264V487.16H547.436V489.96H543.432V502H539.932V489.96H537.468V487.16H539.932V486.208C539.932 484.603 540.399 483.343 541.332 482.428C542.265 481.495 543.581 481.028 545.28 481.028C546.624 481.028 547.679 481.299 548.444 481.84L547.464 484.472C546.867 484.061 546.223 483.856 545.532 483.856ZM556.293 502.196C554.781 502.196 553.419 501.869 552.205 501.216C550.992 500.563 550.04 499.657 549.349 498.5C548.677 497.324 548.341 495.999 548.341 494.524C548.341 493.049 548.677 491.733 549.349 490.576C550.04 489.419 550.992 488.513 552.205 487.86C553.419 487.207 554.781 486.88 556.293 486.88C557.824 486.88 559.196 487.207 560.409 487.86C561.623 488.513 562.565 489.419 563.237 490.576C563.928 491.733 564.273 493.049 564.273 494.524C564.273 495.999 563.928 497.324 563.237 498.5C562.565 499.657 561.623 500.563 560.409 501.216C559.196 501.869 557.824 502.196 556.293 502.196ZM556.293 499.2C557.581 499.2 558.645 498.771 559.485 497.912C560.325 497.053 560.745 495.924 560.745 494.524C560.745 493.124 560.325 491.995 559.485 491.136C558.645 490.277 557.581 489.848 556.293 489.848C555.005 489.848 553.941 490.277 553.101 491.136C552.28 491.995 551.869 493.124 551.869 494.524C551.869 495.924 552.28 497.053 553.101 497.912C553.941 498.771 555.005 499.2 556.293 499.2ZM567.62 487.048H571.12V502H567.62V487.048ZM569.384 484.584C568.75 484.584 568.218 484.388 567.788 483.996C567.359 483.585 567.144 483.081 567.144 482.484C567.144 481.887 567.359 481.392 567.788 481C568.218 480.589 568.75 480.384 569.384 480.384C570.019 480.384 570.551 480.58 570.98 480.972C571.41 481.345 571.624 481.821 571.624 482.4C571.624 483.016 571.41 483.539 570.98 483.968C570.57 484.379 570.038 484.584 569.384 484.584ZM597.508 494.608C597.508 494.851 597.49 495.196 597.452 495.644H585.72C585.926 496.745 586.458 497.623 587.316 498.276C588.194 498.911 589.276 499.228 590.564 499.228C592.207 499.228 593.56 498.687 594.624 497.604L596.5 499.76C595.828 500.563 594.979 501.169 593.952 501.58C592.926 501.991 591.768 502.196 590.48 502.196C588.838 502.196 587.391 501.869 586.14 501.216C584.89 500.563 583.919 499.657 583.228 498.5C582.556 497.324 582.22 495.999 582.22 494.524C582.22 493.068 582.547 491.761 583.2 490.604C583.872 489.428 584.796 488.513 585.972 487.86C587.148 487.207 588.474 486.88 589.948 486.88C591.404 486.88 592.702 487.207 593.84 487.86C594.998 488.495 595.894 489.4 596.528 490.576C597.182 491.733 597.508 493.077 597.508 494.608ZM589.948 489.68C588.828 489.68 587.876 490.016 587.092 490.688C586.327 491.341 585.86 492.219 585.692 493.32H594.176C594.027 492.237 593.57 491.36 592.804 490.688C592.039 490.016 591.087 489.68 589.948 489.68ZM609.354 486.88C611.24 486.88 612.752 487.431 613.89 488.532C615.029 489.633 615.598 491.267 615.598 493.432V502H612.098V493.88C612.098 492.573 611.79 491.593 611.174 490.94C610.558 490.268 609.681 489.932 608.542 489.932C607.254 489.932 606.237 490.324 605.49 491.108C604.744 491.873 604.37 492.984 604.37 494.44V502H600.87V487.048H604.202V488.98C604.781 488.289 605.509 487.767 606.386 487.412C607.264 487.057 608.253 486.88 609.354 486.88ZM627.035 502.196C625.486 502.196 624.095 501.869 622.863 501.216C621.631 500.563 620.67 499.657 619.979 498.5C619.288 497.324 618.943 495.999 618.943 494.524C618.943 493.049 619.288 491.733 619.979 490.576C620.67 489.419 621.622 488.513 622.835 487.86C624.067 487.207 625.467 486.88 627.035 486.88C628.51 486.88 629.798 487.179 630.899 487.776C632.019 488.373 632.859 489.232 633.419 490.352L630.731 491.92C630.302 491.229 629.76 490.716 629.107 490.38C628.472 490.025 627.772 489.848 627.007 489.848C625.7 489.848 624.618 490.277 623.759 491.136C622.9 491.976 622.471 493.105 622.471 494.524C622.471 495.943 622.891 497.081 623.731 497.94C624.59 498.78 625.682 499.2 627.007 499.2C627.772 499.2 628.472 499.032 629.107 498.696C629.76 498.341 630.302 497.819 630.731 497.128L633.419 498.696C632.84 499.816 631.991 500.684 630.871 501.3C629.77 501.897 628.491 502.196 627.035 502.196ZM642.946 502.196C641.434 502.196 640.071 501.869 638.858 501.216C637.644 500.563 636.692 499.657 636.002 498.5C635.33 497.324 634.994 495.999 634.994 494.524C634.994 493.049 635.33 491.733 636.002 490.576C636.692 489.419 637.644 488.513 638.858 487.86C640.071 487.207 641.434 486.88 642.946 486.88C644.476 486.88 645.848 487.207 647.062 487.86C648.275 488.513 649.218 489.419 649.89 490.576C650.58 491.733 650.926 493.049 650.926 494.524C650.926 495.999 650.58 497.324 649.89 498.5C649.218 499.657 648.275 500.563 647.062 501.216C645.848 501.869 644.476 502.196 642.946 502.196ZM642.946 499.2C644.234 499.2 645.298 498.771 646.138 497.912C646.978 497.053 647.398 495.924 647.398 494.524C647.398 493.124 646.978 491.995 646.138 491.136C645.298 490.277 644.234 489.848 642.946 489.848C641.658 489.848 640.594 490.277 639.754 491.136C638.932 491.995 638.522 493.124 638.522 494.524C638.522 495.924 638.932 497.053 639.754 497.912C640.594 498.771 641.658 499.2 642.946 499.2ZM662.757 486.88C664.642 486.88 666.154 487.431 667.293 488.532C668.431 489.633 669.001 491.267 669.001 493.432V502H665.501V493.88C665.501 492.573 665.193 491.593 664.577 490.94C663.961 490.268 663.083 489.932 661.945 489.932C660.657 489.932 659.639 490.324 658.893 491.108C658.146 491.873 657.773 492.984 657.773 494.44V502H654.273V487.048H657.605V488.98C658.183 488.289 658.911 487.767 659.789 487.412C660.666 487.057 661.655 486.88 662.757 486.88ZM682.429 501.188C682.018 501.524 681.514 501.776 680.917 501.944C680.338 502.112 679.722 502.196 679.069 502.196C677.426 502.196 676.157 501.767 675.261 500.908C674.365 500.049 673.917 498.799 673.917 497.156V489.96H671.453V487.16H673.917V483.744H677.417V487.16H681.421V489.96H677.417V497.072C677.417 497.8 677.594 498.36 677.949 498.752C678.303 499.125 678.817 499.312 679.489 499.312C680.273 499.312 680.926 499.107 681.449 498.696L682.429 501.188ZM688.64 489.232C689.648 487.664 691.421 486.88 693.96 486.88V490.212C693.661 490.156 693.39 490.128 693.148 490.128C691.785 490.128 690.721 490.529 689.956 491.332C689.19 492.116 688.808 493.255 688.808 494.748V502H685.308V487.048H688.64V489.232ZM702.559 486.88C704.761 486.88 706.441 487.412 707.599 488.476C708.775 489.521 709.363 491.108 709.363 493.236V502H706.059V500.18C705.629 500.833 705.013 501.337 704.211 501.692C703.427 502.028 702.475 502.196 701.355 502.196C700.235 502.196 699.255 502.009 698.415 501.636C697.575 501.244 696.921 500.712 696.455 500.04C696.007 499.349 695.783 498.575 695.783 497.716C695.783 496.372 696.277 495.299 697.267 494.496C698.275 493.675 699.852 493.264 701.999 493.264H705.863V493.04C705.863 491.995 705.545 491.192 704.911 490.632C704.295 490.072 703.371 489.792 702.139 489.792C701.299 489.792 700.468 489.923 699.647 490.184C698.844 490.445 698.163 490.809 697.603 491.276L696.231 488.728C697.015 488.131 697.957 487.673 699.059 487.356C700.16 487.039 701.327 486.88 702.559 486.88ZM702.083 499.648C702.96 499.648 703.735 499.452 704.407 499.06C705.097 498.649 705.583 498.071 705.863 497.324V495.588H702.251C700.235 495.588 699.227 496.251 699.227 497.576C699.227 498.211 699.479 498.715 699.983 499.088C700.487 499.461 701.187 499.648 702.083 499.648ZM728.635 481.224V502H725.275V500.068C724.697 500.777 723.978 501.309 723.119 501.664C722.279 502.019 721.346 502.196 720.319 502.196C718.882 502.196 717.585 501.879 716.427 501.244C715.289 500.609 714.393 499.713 713.739 498.556C713.086 497.38 712.759 496.036 712.759 494.524C712.759 493.012 713.086 491.677 713.739 490.52C714.393 489.363 715.289 488.467 716.427 487.832C717.585 487.197 718.882 486.88 720.319 486.88C721.309 486.88 722.214 487.048 723.035 487.384C723.857 487.72 724.557 488.224 725.135 488.896V481.224H728.635ZM720.739 499.2C721.579 499.2 722.335 499.013 723.007 498.64C723.679 498.248 724.211 497.697 724.603 496.988C724.995 496.279 725.191 495.457 725.191 494.524C725.191 493.591 724.995 492.769 724.603 492.06C724.211 491.351 723.679 490.809 723.007 490.436C722.335 490.044 721.579 489.848 720.739 489.848C719.899 489.848 719.143 490.044 718.471 490.436C717.799 490.809 717.267 491.351 716.875 492.06C716.483 492.769 716.287 493.591 716.287 494.524C716.287 495.457 716.483 496.279 716.875 496.988C717.267 497.697 717.799 498.248 718.471 498.64C719.143 499.013 719.899 499.2 720.739 499.2ZM739.934 502.196C738.422 502.196 737.059 501.869 735.846 501.216C734.633 500.563 733.681 499.657 732.99 498.5C732.318 497.324 731.982 495.999 731.982 494.524C731.982 493.049 732.318 491.733 732.99 490.576C733.681 489.419 734.633 488.513 735.846 487.86C737.059 487.207 738.422 486.88 739.934 486.88C741.465 486.88 742.837 487.207 744.05 487.86C745.263 488.513 746.206 489.419 746.878 490.576C747.569 491.733 747.914 493.049 747.914 494.524C747.914 495.999 747.569 497.324 746.878 498.5C746.206 499.657 745.263 500.563 744.05 501.216C742.837 501.869 741.465 502.196 739.934 502.196ZM739.934 499.2C741.222 499.2 742.286 498.771 743.126 497.912C743.966 497.053 744.386 495.924 744.386 494.524C744.386 493.124 743.966 491.995 743.126 491.136C742.286 490.277 741.222 489.848 739.934 489.848C738.646 489.848 737.582 490.277 736.742 491.136C735.921 491.995 735.51 493.124 735.51 494.524C735.51 495.924 735.921 497.053 736.742 497.912C737.582 498.771 738.646 499.2 739.934 499.2ZM750.813 482.4H754.957L754.257 495.504H751.485L750.813 482.4ZM752.885 502.196C752.232 502.196 751.69 501.991 751.261 501.58C750.832 501.151 750.617 500.628 750.617 500.012C750.617 499.396 750.832 498.883 751.261 498.472C751.69 498.061 752.232 497.856 752.885 497.856C753.52 497.856 754.042 498.061 754.453 498.472C754.882 498.883 755.097 499.396 755.097 500.012C755.097 500.628 754.882 501.151 754.453 501.58C754.042 501.991 753.52 502.196 752.885 502.196Z" fill="#F08889"/>
<path d="M329.182 531.2L321.862 548H318.79L311.446 531.2H314.83L320.422 544.16L326.062 531.2H329.182ZM341.754 541.664C341.754 541.872 341.738 542.168 341.706 542.552H331.65C331.826 543.496 332.282 544.248 333.018 544.808C333.77 545.352 334.698 545.624 335.802 545.624C337.21 545.624 338.37 545.16 339.282 544.232L340.89 546.08C340.314 546.768 339.586 547.288 338.706 547.64C337.826 547.992 336.834 548.168 335.73 548.168C334.322 548.168 333.082 547.888 332.01 547.328C330.938 546.768 330.106 545.992 329.514 545C328.938 543.992 328.65 542.856 328.65 541.592C328.65 540.344 328.93 539.224 329.49 538.232C330.066 537.224 330.858 536.44 331.866 535.88C332.874 535.32 334.01 535.04 335.274 535.04C336.522 535.04 337.634 535.32 338.61 535.88C339.602 536.424 340.37 537.2 340.914 538.208C341.474 539.2 341.754 540.352 341.754 541.664ZM335.274 537.44C334.314 537.44 333.498 537.728 332.826 538.304C332.17 538.864 331.77 539.616 331.626 540.56H338.898C338.77 539.632 338.378 538.88 337.722 538.304C337.066 537.728 336.25 537.44 335.274 537.44ZM347.492 537.056C348.356 535.712 349.876 535.04 352.052 535.04V537.896C351.796 537.848 351.564 537.824 351.356 537.824C350.188 537.824 349.276 538.168 348.62 538.856C347.964 539.528 347.636 540.504 347.636 541.784V548H344.636V535.184H347.492V537.056ZM354.597 535.184H357.597V548H354.597V535.184ZM356.109 533.072C355.565 533.072 355.109 532.904 354.741 532.568C354.373 532.216 354.189 531.784 354.189 531.272C354.189 530.76 354.373 530.336 354.741 530C355.109 529.648 355.565 529.472 356.109 529.472C356.653 529.472 357.109 529.64 357.477 529.976C357.845 530.296 358.029 530.704 358.029 531.2C358.029 531.728 357.845 532.176 357.477 532.544C357.125 532.896 356.669 533.072 356.109 533.072ZM366.742 532.448C365.478 532.448 364.846 533.136 364.846 534.512V535.28H368.374V537.68H364.942V548H361.942V537.68H359.83V535.28H361.942V534.464C361.942 533.088 362.342 532.008 363.142 531.224C363.942 530.424 365.07 530.024 366.526 530.024C367.678 530.024 368.582 530.256 369.238 530.72L368.398 532.976C367.886 532.624 367.334 532.448 366.742 532.448ZM372.31 535.184H375.31V548H372.31V535.184ZM373.822 533.072C373.278 533.072 372.822 532.904 372.454 532.568C372.086 532.216 371.902 531.784 371.902 531.272C371.902 530.76 372.086 530.336 372.454 530C372.822 529.648 373.278 529.472 373.822 529.472C374.366 529.472 374.822 529.64 375.19 529.976C375.558 530.296 375.742 530.704 375.742 531.2C375.742 531.728 375.558 532.176 375.19 532.544C374.838 532.896 374.382 533.072 373.822 533.072ZM391.781 535.184V552.656H388.781V546.44C387.773 547.592 386.405 548.168 384.677 548.168C383.429 548.168 382.309 547.896 381.317 547.352C380.341 546.808 379.573 546.04 379.013 545.048C378.469 544.056 378.197 542.904 378.197 541.592C378.197 540.296 378.477 539.152 379.037 538.16C379.597 537.168 380.365 536.4 381.341 535.856C382.317 535.312 383.429 535.04 384.677 535.04C385.557 535.04 386.357 535.192 387.077 535.496C387.813 535.8 388.429 536.256 388.925 536.864V535.184H391.781ZM385.013 545.6C386.117 545.6 387.029 545.232 387.749 544.496C388.469 543.76 388.829 542.792 388.829 541.592C388.829 540.392 388.469 539.424 387.749 538.688C387.029 537.952 386.117 537.584 385.013 537.584C383.909 537.584 382.997 537.952 382.277 538.688C381.573 539.424 381.221 540.392 381.221 541.592C381.221 542.792 381.573 543.76 382.277 544.496C382.997 545.232 383.909 545.6 385.013 545.6ZM408.114 535.184V548H405.258V546.368C404.778 546.944 404.178 547.392 403.458 547.712C402.738 548.016 401.962 548.168 401.13 548.168C399.418 548.168 398.066 547.696 397.074 546.752C396.098 545.792 395.61 544.376 395.61 542.504V535.184H398.61V542.096C398.61 543.248 398.866 544.112 399.378 544.688C399.906 545.248 400.65 545.528 401.61 545.528C402.682 545.528 403.53 545.2 404.154 544.544C404.794 543.872 405.114 542.912 405.114 541.664V535.184H408.114ZM424.09 541.664C424.09 541.872 424.074 542.168 424.042 542.552H413.986C414.162 543.496 414.618 544.248 415.354 544.808C416.106 545.352 417.034 545.624 418.138 545.624C419.546 545.624 420.706 545.16 421.618 544.232L423.226 546.08C422.65 546.768 421.922 547.288 421.042 547.64C420.162 547.992 419.17 548.168 418.066 548.168C416.658 548.168 415.418 547.888 414.346 547.328C413.274 546.768 412.442 545.992 411.85 545C411.274 543.992 410.986 542.856 410.986 541.592C410.986 540.344 411.266 539.224 411.826 538.232C412.402 537.224 413.194 536.44 414.202 535.88C415.21 535.32 416.346 535.04 417.61 535.04C418.858 535.04 419.97 535.32 420.946 535.88C421.938 536.424 422.706 537.2 423.25 538.208C423.81 539.2 424.09 540.352 424.09 541.664ZM417.61 537.44C416.65 537.44 415.834 537.728 415.162 538.304C414.506 538.864 414.106 539.616 413.962 540.56H421.234C421.106 539.632 420.714 538.88 420.058 538.304C419.402 537.728 418.586 537.44 417.61 537.44ZM437.565 548.168C436.525 548.168 435.509 548.032 434.517 547.76C433.525 547.488 432.733 547.144 432.141 546.728L433.293 544.448C433.869 544.832 434.557 545.144 435.357 545.384C436.173 545.608 436.973 545.72 437.757 545.72C439.549 545.72 440.445 545.248 440.445 544.304C440.445 543.856 440.213 543.544 439.749 543.368C439.301 543.192 438.573 543.024 437.565 542.864C436.509 542.704 435.645 542.52 434.973 542.312C434.317 542.104 433.741 541.744 433.245 541.232C432.765 540.704 432.525 539.976 432.525 539.048C432.525 537.832 433.029 536.864 434.037 536.144C435.061 535.408 436.437 535.04 438.165 535.04C439.045 535.04 439.925 535.144 440.805 535.352C441.685 535.544 442.405 535.808 442.965 536.144L441.813 538.424C440.725 537.784 439.501 537.464 438.141 537.464C437.261 537.464 436.589 537.6 436.125 537.872C435.677 538.128 435.453 538.472 435.453 538.904C435.453 539.384 435.693 539.728 436.173 539.936C436.669 540.128 437.429 540.312 438.453 540.488C439.477 540.648 440.317 540.832 440.973 541.04C441.629 541.248 442.189 541.6 442.653 542.096C443.133 542.592 443.373 543.296 443.373 544.208C443.373 545.408 442.853 546.368 441.813 547.088C440.773 547.808 439.357 548.168 437.565 548.168ZM458.004 541.664C458.004 541.872 457.988 542.168 457.956 542.552H447.9C448.076 543.496 448.532 544.248 449.268 544.808C450.02 545.352 450.948 545.624 452.052 545.624C453.46 545.624 454.62 545.16 455.532 544.232L457.14 546.08C456.564 546.768 455.836 547.288 454.956 547.64C454.076 547.992 453.084 548.168 451.98 548.168C450.572 548.168 449.332 547.888 448.26 547.328C447.188 546.768 446.356 545.992 445.764 545C445.188 543.992 444.9 542.856 444.9 541.592C444.9 540.344 445.18 539.224 445.74 538.232C446.316 537.224 447.108 536.44 448.116 535.88C449.124 535.32 450.26 535.04 451.524 535.04C452.772 535.04 453.884 535.32 454.86 535.88C455.852 536.424 456.62 537.2 457.164 538.208C457.724 539.2 458.004 540.352 458.004 541.664ZM451.524 537.44C450.564 537.44 449.748 537.728 449.076 538.304C448.42 538.864 448.02 539.616 447.876 540.56H455.148C455.02 539.632 454.628 538.88 453.972 538.304C453.316 537.728 452.5 537.44 451.524 537.44ZM479.567 541.664C479.567 541.872 479.551 542.168 479.519 542.552H469.463C469.639 543.496 470.095 544.248 470.831 544.808C471.583 545.352 472.511 545.624 473.615 545.624C475.023 545.624 476.183 545.16 477.095 544.232L478.703 546.08C478.127 546.768 477.399 547.288 476.519 547.64C475.639 547.992 474.647 548.168 473.543 548.168C472.135 548.168 470.895 547.888 469.823 547.328C468.751 546.768 467.919 545.992 467.327 545C466.751 543.992 466.463 542.856 466.463 541.592C466.463 540.344 466.743 539.224 467.303 538.232C467.879 537.224 468.671 536.44 469.679 535.88C470.687 535.32 471.823 535.04 473.087 535.04C474.335 535.04 475.447 535.32 476.423 535.88C477.415 536.424 478.183 537.2 478.727 538.208C479.287 539.2 479.567 540.352 479.567 541.664ZM473.087 537.44C472.127 537.44 471.311 537.728 470.639 538.304C469.983 538.864 469.583 539.616 469.439 540.56H476.711C476.583 539.632 476.191 538.88 475.535 538.304C474.879 537.728 474.063 537.44 473.087 537.44ZM486.408 548.168C485.368 548.168 484.352 548.032 483.36 547.76C482.368 547.488 481.576 547.144 480.984 546.728L482.136 544.448C482.712 544.832 483.4 545.144 484.2 545.384C485.016 545.608 485.816 545.72 486.6 545.72C488.392 545.72 489.288 545.248 489.288 544.304C489.288 543.856 489.056 543.544 488.592 543.368C488.144 543.192 487.416 543.024 486.408 542.864C485.352 542.704 484.488 542.52 483.816 542.312C483.16 542.104 482.584 541.744 482.088 541.232C481.608 540.704 481.368 539.976 481.368 539.048C481.368 537.832 481.872 536.864 482.88 536.144C483.904 535.408 485.28 535.04 487.008 535.04C487.888 535.04 488.768 535.144 489.648 535.352C490.528 535.544 491.248 535.808 491.808 536.144L490.656 538.424C489.568 537.784 488.344 537.464 486.984 537.464C486.104 537.464 485.432 537.6 484.968 537.872C484.52 538.128 484.296 538.472 484.296 538.904C484.296 539.384 484.536 539.728 485.016 539.936C485.512 540.128 486.272 540.312 487.296 540.488C488.32 540.648 489.16 540.832 489.816 541.04C490.472 541.248 491.032 541.6 491.496 542.096C491.976 542.592 492.216 543.296 492.216 544.208C492.216 545.408 491.696 546.368 490.656 547.088C489.616 547.808 488.2 548.168 486.408 548.168ZM500.68 548.168C499.352 548.168 498.16 547.888 497.104 547.328C496.048 546.768 495.224 545.992 494.632 545C494.04 543.992 493.744 542.856 493.744 541.592C493.744 540.328 494.04 539.2 494.632 538.208C495.224 537.216 496.04 536.44 497.08 535.88C498.136 535.32 499.336 535.04 500.68 535.04C501.944 535.04 503.048 535.296 503.992 535.808C504.952 536.32 505.672 537.056 506.152 538.016L503.848 539.36C503.48 538.768 503.016 538.328 502.456 538.04C501.912 537.736 501.312 537.584 500.656 537.584C499.536 537.584 498.608 537.952 497.872 538.688C497.136 539.408 496.768 540.376 496.768 541.592C496.768 542.808 497.128 543.784 497.848 544.52C498.584 545.24 499.52 545.6 500.656 545.6C501.312 545.6 501.912 545.456 502.456 545.168C503.016 544.864 503.48 544.416 503.848 543.824L506.152 545.168C505.656 546.128 504.928 546.872 503.968 547.4C503.024 547.912 501.928 548.168 500.68 548.168ZM511.601 537.056C512.465 535.712 513.985 535.04 516.161 535.04V537.896C515.905 537.848 515.673 537.824 515.465 537.824C514.297 537.824 513.385 538.168 512.729 538.856C512.073 539.528 511.745 540.504 511.745 541.784V548H508.745V535.184H511.601V537.056ZM518.706 535.184H521.706V548H518.706V535.184ZM520.218 533.072C519.674 533.072 519.218 532.904 518.85 532.568C518.482 532.216 518.298 531.784 518.298 531.272C518.298 530.76 518.482 530.336 518.85 530C519.218 529.648 519.674 529.472 520.218 529.472C520.762 529.472 521.218 529.64 521.586 529.976C521.954 530.296 522.138 530.704 522.138 531.2C522.138 531.728 521.954 532.176 521.586 532.544C521.234 532.896 520.778 533.072 520.218 533.072ZM533.348 547.304C532.996 547.592 532.564 547.808 532.052 547.952C531.556 548.096 531.028 548.168 530.468 548.168C529.06 548.168 527.972 547.8 527.204 547.064C526.436 546.328 526.052 545.256 526.052 543.848V537.68H523.94V535.28H526.052V532.352H529.052V535.28H532.484V537.68H529.052V543.776C529.052 544.4 529.204 544.88 529.508 545.216C529.812 545.536 530.252 545.696 530.828 545.696C531.5 545.696 532.06 545.52 532.508 545.168L533.348 547.304ZM540.712 535.04C542.6 535.04 544.04 535.496 545.032 536.408C546.04 537.304 546.544 538.664 546.544 540.488V548H543.712V546.44C543.344 547 542.816 547.432 542.128 547.736C541.456 548.024 540.64 548.168 539.68 548.168C538.72 548.168 537.88 548.008 537.16 547.688C536.44 547.352 535.88 546.896 535.48 546.32C535.096 545.728 534.904 545.064 534.904 544.328C534.904 543.176 535.328 542.256 536.176 541.568C537.04 540.864 538.392 540.512 540.232 540.512H543.544V540.32C543.544 539.424 543.272 538.736 542.728 538.256C542.2 537.776 541.408 537.536 540.352 537.536C539.632 537.536 538.92 537.648 538.216 537.872C537.528 538.096 536.944 538.408 536.464 538.808L535.288 536.624C535.96 536.112 536.768 535.72 537.712 535.448C538.656 535.176 539.656 535.04 540.712 535.04ZM540.304 545.984C541.056 545.984 541.72 545.816 542.296 545.48C542.888 545.128 543.304 544.632 543.544 543.992V542.504H540.448C538.72 542.504 537.856 543.072 537.856 544.208C537.856 544.752 538.072 545.184 538.504 545.504C538.936 545.824 539.536 545.984 540.304 545.984ZM569.075 541.664C569.075 541.872 569.059 542.168 569.027 542.552H558.971C559.147 543.496 559.603 544.248 560.339 544.808C561.091 545.352 562.019 545.624 563.123 545.624C564.531 545.624 565.691 545.16 566.603 544.232L568.211 546.08C567.635 546.768 566.907 547.288 566.027 547.64C565.147 547.992 564.155 548.168 563.051 548.168C561.643 548.168 560.403 547.888 559.331 547.328C558.259 546.768 557.427 545.992 556.835 545C556.259 543.992 555.971 542.856 555.971 541.592C555.971 540.344 556.251 539.224 556.811 538.232C557.387 537.224 558.179 536.44 559.187 535.88C560.195 535.32 561.331 535.04 562.595 535.04C563.843 535.04 564.955 535.32 565.931 535.88C566.923 536.424 567.691 537.2 568.235 538.208C568.795 539.2 569.075 540.352 569.075 541.664ZM562.595 537.44C561.635 537.44 560.819 537.728 560.147 538.304C559.491 538.864 559.091 539.616 558.947 540.56H566.219C566.091 539.632 565.699 538.88 565.043 538.304C564.387 537.728 563.571 537.44 562.595 537.44ZM575.916 548.168C574.876 548.168 573.86 548.032 572.868 547.76C571.876 547.488 571.084 547.144 570.492 546.728L571.644 544.448C572.22 544.832 572.908 545.144 573.708 545.384C574.524 545.608 575.324 545.72 576.108 545.72C577.9 545.72 578.796 545.248 578.796 544.304C578.796 543.856 578.564 543.544 578.1 543.368C577.652 543.192 576.924 543.024 575.916 542.864C574.86 542.704 573.996 542.52 573.324 542.312C572.668 542.104 572.092 541.744 571.596 541.232C571.116 540.704 570.876 539.976 570.876 539.048C570.876 537.832 571.38 536.864 572.388 536.144C573.412 535.408 574.788 535.04 576.516 535.04C577.396 535.04 578.276 535.144 579.156 535.352C580.036 535.544 580.756 535.808 581.316 536.144L580.164 538.424C579.076 537.784 577.852 537.464 576.492 537.464C575.612 537.464 574.94 537.6 574.476 537.872C574.028 538.128 573.804 538.472 573.804 538.904C573.804 539.384 574.044 539.728 574.524 539.936C575.02 540.128 575.78 540.312 576.804 540.488C577.828 540.648 578.668 540.832 579.324 541.04C579.98 541.248 580.54 541.6 581.004 542.096C581.484 542.592 581.724 543.296 581.724 544.208C581.724 545.408 581.204 546.368 580.164 547.088C579.124 547.808 577.708 548.168 575.916 548.168ZM592.012 547.304C591.66 547.592 591.228 547.808 590.716 547.952C590.22 548.096 589.692 548.168 589.132 548.168C587.724 548.168 586.636 547.8 585.868 547.064C585.1 546.328 584.716 545.256 584.716 543.848V537.68H582.604V535.28H584.716V532.352H587.716V535.28H591.148V537.68H587.716V543.776C587.716 544.4 587.868 544.88 588.172 545.216C588.476 545.536 588.916 545.696 589.492 545.696C590.164 545.696 590.724 545.52 591.172 545.168L592.012 547.304ZM599.376 535.04C601.264 535.04 602.704 535.496 603.696 536.408C604.704 537.304 605.208 538.664 605.208 540.488V548H602.376V546.44C602.008 547 601.48 547.432 600.792 547.736C600.12 548.024 599.304 548.168 598.344 548.168C597.384 548.168 596.544 548.008 595.824 547.688C595.104 547.352 594.544 546.896 594.144 546.32C593.76 545.728 593.568 545.064 593.568 544.328C593.568 543.176 593.992 542.256 594.84 541.568C595.704 540.864 597.056 540.512 598.896 540.512H602.208V540.32C602.208 539.424 601.936 538.736 601.392 538.256C600.864 537.776 600.072 537.536 599.016 537.536C598.296 537.536 597.584 537.648 596.88 537.872C596.192 538.096 595.608 538.408 595.128 538.808L593.952 536.624C594.624 536.112 595.432 535.72 596.376 535.448C597.32 535.176 598.32 535.04 599.376 535.04ZM598.968 545.984C599.72 545.984 600.384 545.816 600.96 545.48C601.552 545.128 601.968 544.632 602.208 543.992V542.504H599.112C597.384 542.504 596.52 543.072 596.52 544.208C596.52 544.752 596.736 545.184 597.168 545.504C597.6 545.824 598.2 545.984 598.968 545.984ZM600.864 530.144H604.392L600.216 533.432H597.624L600.864 530.144ZM621.571 548.168C620.243 548.168 619.051 547.888 617.995 547.328C616.939 546.768 616.115 545.992 615.523 545C614.931 543.992 614.635 542.856 614.635 541.592C614.635 540.328 614.931 539.2 615.523 538.208C616.115 537.216 616.931 536.44 617.971 535.88C619.027 535.32 620.227 535.04 621.571 535.04C622.835 535.04 623.939 535.296 624.883 535.808C625.843 536.32 626.563 537.056 627.043 538.016L624.739 539.36C624.371 538.768 623.907 538.328 623.347 538.04C622.803 537.736 622.203 537.584 621.547 537.584C620.427 537.584 619.499 537.952 618.763 538.688C618.027 539.408 617.659 540.376 617.659 541.592C617.659 542.808 618.019 543.784 618.739 544.52C619.475 545.24 620.411 545.6 621.547 545.6C622.203 545.6 622.803 545.456 623.347 545.168C623.907 544.864 624.371 544.416 624.739 543.824L627.043 545.168C626.547 546.128 625.819 546.872 624.859 547.4C623.915 547.912 622.819 548.168 621.571 548.168ZM635.208 548.168C633.912 548.168 632.744 547.888 631.704 547.328C630.664 546.768 629.848 545.992 629.256 545C628.68 543.992 628.392 542.856 628.392 541.592C628.392 540.328 628.68 539.2 629.256 538.208C629.848 537.216 630.664 536.44 631.704 535.88C632.744 535.32 633.912 535.04 635.208 535.04C636.52 535.04 637.696 535.32 638.736 535.88C639.776 536.44 640.584 537.216 641.16 538.208C641.752 539.2 642.048 540.328 642.048 541.592C642.048 542.856 641.752 543.992 641.16 545C640.584 545.992 639.776 546.768 638.736 547.328C637.696 547.888 636.52 548.168 635.208 548.168ZM635.208 545.6C636.312 545.6 637.224 545.232 637.944 544.496C638.664 543.76 639.024 542.792 639.024 541.592C639.024 540.392 638.664 539.424 637.944 538.688C637.224 537.952 636.312 537.584 635.208 537.584C634.104 537.584 633.192 537.952 632.472 538.688C631.768 539.424 631.416 540.392 631.416 541.592C631.416 542.792 631.768 543.76 632.472 544.496C633.192 545.232 634.104 545.6 635.208 545.6ZM647.773 537.056C648.637 535.712 650.157 535.04 652.333 535.04V537.896C652.077 537.848 651.845 537.824 651.637 537.824C650.469 537.824 649.557 538.168 648.901 538.856C648.245 539.528 647.917 540.504 647.917 541.784V548H644.917V535.184H647.773V537.056ZM657.734 537.056C658.598 535.712 660.118 535.04 662.294 535.04V537.896C662.038 537.848 661.806 537.824 661.598 537.824C660.43 537.824 659.518 538.168 658.862 538.856C658.206 539.528 657.878 540.504 657.878 541.784V548H654.878V535.184H657.734V537.056ZM676.77 541.664C676.77 541.872 676.754 542.168 676.722 542.552H666.666C666.842 543.496 667.298 544.248 668.034 544.808C668.786 545.352 669.714 545.624 670.818 545.624C672.226 545.624 673.386 545.16 674.298 544.232L675.906 546.08C675.33 546.768 674.602 547.288 673.722 547.64C672.842 547.992 671.85 548.168 670.746 548.168C669.338 548.168 668.098 547.888 667.026 547.328C665.954 546.768 665.122 545.992 664.53 545C663.954 543.992 663.666 542.856 663.666 541.592C663.666 540.344 663.946 539.224 664.506 538.232C665.082 537.224 665.874 536.44 666.882 535.88C667.89 535.32 669.026 535.04 670.29 535.04C671.538 535.04 672.65 535.32 673.626 535.88C674.618 536.424 675.386 537.2 675.93 538.208C676.49 539.2 676.77 540.352 676.77 541.664ZM670.29 537.44C669.33 537.44 668.514 537.728 667.842 538.304C667.186 538.864 666.786 539.616 666.642 540.56H673.914C673.786 539.632 673.394 538.88 672.738 538.304C672.082 537.728 671.266 537.44 670.29 537.44ZM687.356 547.304C687.004 547.592 686.572 547.808 686.06 547.952C685.564 548.096 685.036 548.168 684.476 548.168C683.068 548.168 681.98 547.8 681.212 547.064C680.444 546.328 680.06 545.256 680.06 543.848V537.68H677.948V535.28H680.06V532.352H683.06V535.28H686.492V537.68H683.06V543.776C683.06 544.4 683.212 544.88 683.516 545.216C683.82 545.536 684.26 545.696 684.836 545.696C685.508 545.696 686.068 545.52 686.516 545.168L687.356 547.304ZM694.719 535.04C696.607 535.04 698.047 535.496 699.039 536.408C700.047 537.304 700.551 538.664 700.551 540.488V548H697.719V546.44C697.351 547 696.823 547.432 696.135 547.736C695.463 548.024 694.647 548.168 693.687 548.168C692.727 548.168 691.887 548.008 691.167 547.688C690.447 547.352 689.887 546.896 689.487 546.32C689.103 545.728 688.911 545.064 688.911 544.328C688.911 543.176 689.335 542.256 690.183 541.568C691.047 540.864 692.399 540.512 694.239 540.512H697.551V540.32C697.551 539.424 697.279 538.736 696.735 538.256C696.207 537.776 695.415 537.536 694.359 537.536C693.639 537.536 692.927 537.648 692.223 537.872C691.535 538.096 690.951 538.408 690.471 538.808L689.295 536.624C689.967 536.112 690.775 535.72 691.719 535.448C692.663 535.176 693.663 535.04 694.719 535.04ZM694.311 545.984C695.063 545.984 695.727 545.816 696.303 545.48C696.895 545.128 697.311 544.632 697.551 543.992V542.504H694.455C692.727 542.504 691.863 543.072 691.863 544.208C691.863 544.752 692.079 545.184 692.511 545.504C692.943 545.824 693.543 545.984 694.311 545.984Z" fill="#9B9BB2"/>
<path d="M405.083 400.917L458.833 347.167M612.916 282.667C612.916 233.192 572.808 193.084 523.333 193.084C473.857 193.084 433.749 233.192 433.749 282.667C433.749 332.143 473.857 372.251 523.333 372.251" stroke="#E70000" stroke-opacity="0.45" stroke-width="4" stroke-linecap="round" stroke-linejoin="round"/>
<path d="M618.25 313.75L551.75 380.25" stroke="#F08889" stroke-width="4" stroke-linecap="round" stroke-linejoin="round"/>
<path d="M551.75 313.75L618.25 380.25" stroke="#F08889" stroke-width="4" stroke-linecap="round" stroke-linejoin="round"/>
<path d="M656.999 155.001C666.572 155.001 674.333 147.24 674.333 137.667C674.333 128.094 666.572 120.334 656.999 120.334C647.426 120.334 639.666 128.094 639.666 137.667C639.666 147.24 647.426 155.001 656.999 155.001Z" fill="#F5BDB2" stroke="#F2D6D0" stroke-linecap="round" stroke-linejoin="round"/>
<path d="M658.332 197.666H630.063C623.773 197.666 619.079 192.121 622.284 186.708C626.932 178.857 636.942 169.666 658.332 169.666" fill="#F5BDB2"/>
<path d="M658.332 197.666H630.063C623.773 197.666 619.079 192.121 622.284 186.708C626.932 178.857 636.942 169.666 658.332 169.666" stroke="#F2D6D0" stroke-linecap="round" stroke-linejoin="round"/>
<path d="M695.667 197.667L677 179" stroke="#F2D6D0" stroke-width="1.5" stroke-linecap="round" stroke-linejoin="round"/>
<path d="M677 197.667L695.667 179" stroke="#F2D6D0" stroke-width="1.5" stroke-linecap="round" stroke-linejoin="round"/>
</svg>